<?xml version="1.0" encoding="UTF-8" standalone="no"?>
<!-- Created with Inkscape (http://www.inkscape.org/) -->

<svg
   xmlns:dc="http://purl.org/dc/elements/1.1/"
   xmlns:cc="http://creativecommons.org/ns#"
   xmlns:rdf="http://www.w3.org/1999/02/22-rdf-syntax-ns#"
   xmlns:svg="http://www.w3.org/2000/svg"
   xmlns="http://www.w3.org/2000/svg"
   xmlns:sodipodi="http://sodipodi.sourceforge.net/DTD/sodipodi-0.dtd"
   xmlns:inkscape="http://www.inkscape.org/namespaces/inkscape"
   width="210mm"
   height="297mm"
   viewBox="0 0 210 297"
   version="1.1"
   id="svg8"
   inkscape:version="0.92.3 (2405546, 2018-03-11)"
   sodipodi:docname="logo.svg">
  <defs
     id="defs2" />
  <sodipodi:namedview
     id="base"
     pagecolor="#ffffff"
     bordercolor="#666666"
     borderopacity="1.0"
     inkscape:pageopacity="0.0"
     inkscape:pageshadow="2"
     inkscape:zoom="1.4"
     inkscape:cx="410.26531"
     inkscape:cy="841.08226"
     inkscape:document-units="mm"
     inkscape:current-layer="layer1"
     showgrid="false"
     inkscape:window-width="1860"
     inkscape:window-height="1051"
     inkscape:window-x="51"
     inkscape:window-y="-9"
     inkscape:window-maximized="1" />
  <metadata
     id="metadata5">
    <rdf:RDF>
      <cc:Work
         rdf:about="">
        <dc:format>image/svg+xml</dc:format>
        <dc:type
           rdf:resource="http://purl.org/dc/dcmitype/StillImage" />
        <dc:title></dc:title>
      </cc:Work>
    </rdf:RDF>
  </metadata>
  <g
     inkscape:label="Layer 1"
     inkscape:groupmode="layer"
     id="layer1">
    <flowRoot
       xml:space="preserve"
       id="flowRoot815"
       style="font-style:normal;font-weight:normal;font-size:40px;line-height:1.25;font-family:sans-serif;letter-spacing:0px;word-spacing:0px;fill:#5a2e2e;fill-opacity:1;stroke:none;"
       transform="matrix(0.26458333,0,0,0.26458333,90.723503,8.2774877)"
       inkscape:export-xdpi="64.080002"
       inkscape:export-ydpi="64.080002"><flowRegion
         id="flowRegion817"
         style="fill:#5a2e2e;fill-opacity:1;"><rect
           id="rect819"
           width="415.1727"
           height="328.29959"
           x="102.02541"
           y="237.62605"
           style="fill:#5a2e2e;fill-opacity:1;" /></flowRegion><flowPara
         id="flowPara821"
         style="font-style:normal;font-variant:normal;font-weight:normal;font-stretch:normal;font-size:85.33333588px;font-family:'Fredericka the Great';-inkscape-font-specification:'Fredericka the Great';fill:#5a2e2e;fill-opacity:1;">brews</flowPara></flowRoot>    <path
       d="M -209.90932,-88.108859 H -596.55379 V -363.27554 h 386.64447 v 275.166681"
       style="fill:#eae6ce;fill-opacity:1;fill-rule:nonzero;stroke:none;stroke-width:0.03527778"
       id="path14"
       inkscape:connector-curvature="0" />
    <path
       d="m -700.73371,-114.08828 c 12.18717,3.37608 24.17597,4.97276 37.72158,5.02426 13.62992,-0.0522 25.68998,-1.66899 37.95218,-5.08811 0.5207,-0.14746 1.05516,-0.1898 1.55964,-0.12418 1.90923,-8.00629 2.87725,-17.23814 2.87725,-27.44329 0,-8.86178 -1.79846,-17.92535 -3.31752,-24.00089 -12.31547,-3.81282 -25.1333,-5.74604 -38.09895,-5.74604 -13.07641,0 -25.99866,1.96568 -38.40826,5.8427 -0.32395,0.1009 -0.66145,0.15805 -1.00471,0.17075 -2.06872,7.84966 -3.16177,16.05315 -3.16177,23.73348 0,9.43434 1.3057,18.73074 3.88056,27.63132 z m 37.72158,5.37704 h -0.001 c -13.61264,-0.0519 -25.65859,-1.66088 -37.90937,-5.06342 l -0.0947,-0.0265 -0.0274,-0.0942 c -2.60244,-8.96162 -3.92205,-18.32293 -3.92205,-27.82429 0,-7.75229 1.10903,-16.03481 3.20739,-23.9522 l 0.0347,-0.13124 0.13547,-3.5e-4 c 0.355,-7e-4 0.70376,-0.0533 1.03685,-0.15699 12.44318,-3.88761 25.40106,-5.85893 38.5131,-5.85893 13.03444,0 25.91965,1.94839 38.29827,5.7912 l 0.0945,0.0296 0.024,0.096 c 1.52929,6.0953 3.35245,15.23824 3.35245,24.18292 0,10.2997 -0.98425,19.61409 -2.92488,27.68388 l -0.0392,0.16193 -0.16369,-0.0296 c -0.49706,-0.0903 -1.03893,-0.0589 -1.56669,0.0907 -12.29395,3.42829 -24.38364,5.04931 -38.04743,5.10152"
       style="fill:#201d1d;fill-opacity:1;fill-rule:nonzero;stroke:none;stroke-width:0.03527778"
       id="path16"
       inkscape:connector-curvature="0" />
    <path
       d="m -696.95077,-103.51447 c 11.24232,2.73826 22.31602,4.035777 34.84139,4.083049 12.66367,-0.04762 23.86084,-1.375129 35.22557,-4.176539 0.59973,-1.46438 1.16876,-3.02224 1.69369,-4.6362 -12.16413,3.16759 -24.54064,4.72722 -37.82237,4.76673 -12.51161,-0.0374 -24.16563,-1.41464 -35.61327,-4.20899 0.5274,1.41958 1.09009,2.82116 1.67499,4.17195 z m 34.84139,4.435827 h -10e-4 c -12.5857,-0.04762 -23.7102,-1.354667 -35.00932,-4.113747 l -0.085,-0.0208 -0.0349,-0.0804 c -0.64277,-1.48026 -1.25907,-3.02225 -1.83198,-4.58259 l -0.11465,-0.3115 0.32208,0.0794 c 11.5242,2.84127 23.25159,4.24039 35.85175,4.27813 13.36428,-0.0395 25.80887,-1.62172 38.04427,-4.83658 l 0.31079,-0.0818 -0.0981,0.30622 c -0.5648,1.76247 -1.18251,3.46216 -1.83585,5.05142 l -0.0342,0.0829 -0.0868,0.0212 c -11.42294,2.82328 -22.67056,4.160309 -35.39702,4.208287"
       style="fill:#201d1d;fill-opacity:1;fill-rule:nonzero;stroke:none;stroke-width:0.03527778"
       id="path18"
       inkscape:connector-curvature="0" />
    <path
       d="m -662.83539,-186.24051 c 11.51996,0 22.94043,1.70956 33.95133,5.08176 -1.07068,-2.58798 -1.75648,-3.74262 -2.04646,-3.9564 -3.39901,-2.50825 -22.6695,-4.39738 -33.92417,-4.54625 -0.24271,-0.003 -0.49036,-0.005 -0.74189,-0.005 -10.54453,0 -26.32781,2.5714 -27.68495,4.51027 -0.69709,0.99624 -1.41887,2.20274 -2.14806,3.59057 10.59074,-3.10233 21.55472,-4.67501 32.5942,-4.67501 z m 34.56023,5.63915 -0.35631,-0.11042 c -11.0871,-3.43429 -22.59506,-5.17595 -34.20392,-5.17595 -11.1439,0 -22.21019,1.6076 -32.89195,4.77766 l -0.39581,0.11748 0.18909,-0.36724 c 0.80115,-1.55716 1.59632,-2.90266 2.36361,-3.99839 1.58326,-2.26165 18.84468,-4.78931 28.72034,-4.65596 11.29983,0.14958 30.67509,2.06622 34.12914,4.61504 0.63676,0.4699 1.82421,3.27025 2.30505,4.45241 l 0.14076,0.34537"
       style="fill:#201d1d;fill-opacity:1;fill-rule:nonzero;stroke:none;stroke-width:0.03527778"
       id="path20"
       inkscape:connector-curvature="0" />
    <path
       d="m -693.77824,-97.019479 c 0.81315,1.478492 1.6577,2.893131 2.5139,4.21005 0.67345,0.5207 16.26199,2.257778 27.50255,2.257778 10.57311,0 30.14451,-2.837745 31.52599,-3.040239 0.75459,-1.094317 1.49225,-2.2733 2.19675,-3.510139 -10.30217,2.157589 -20.79731,3.223331 -32.07068,3.25755 -11.12767,-0.03351 -21.49052,-1.072797 -31.66851,-3.175 z m 30.01645,6.820606 c -10.70751,0 -27.33005,-1.698272 -27.79853,-2.418292 -0.92534,-1.423811 -1.83727,-2.960864 -2.71075,-4.568472 l -0.18168,-0.334787 0.37289,0.07796 c 10.27394,2.149475 20.73169,3.211337 31.97013,3.245203 11.38696,-0.03457 21.97876,-1.12395 32.37936,-3.330575 l 0.38065,-0.08043 -0.19015,0.339019 c -0.78035,1.394884 -1.60443,2.72027 -2.44934,3.940881 l -0.0437,0.06315 -0.0755,0.01094 c -0.20602,0.03069 -20.71899,3.055409 -31.65334,3.055409"
       style="fill:#201d1d;fill-opacity:1;fill-rule:nonzero;stroke:none;stroke-width:0.03527778"
       id="path22"
       inkscape:connector-curvature="0" />
    <path
       d="m -698.42115,-174.88248 c -0.39052,1.01177 -0.77117,2.06199 -1.13453,3.12702 12.1666,-3.51613 24.78793,-5.29942 37.51827,-5.29942 12.31159,0 24.53429,1.67005 36.33506,4.96358 -0.28787,-0.94933 -0.58773,-1.89653 -0.89324,-2.82258 -0.49777,0.0773 -1.00965,0.0335 -1.49154,-0.12594 -11.22786,-3.72463 -22.91927,-5.61304 -34.74967,-5.61304 -11.83076,0 -23.52217,1.88841 -34.75003,5.61304 -0.26776,0.0889 -0.54786,0.14147 -0.83432,0.15734 z m -1.68472,3.65443 0.10763,-0.31997 c 0.40975,-1.21779 0.84402,-2.419 1.28993,-3.57011 l 0.0427,-0.11042 0.11818,-0.002 c 0.2928,-0.005 0.57855,-0.054 0.84984,-0.14358 11.26349,-3.73663 22.99229,-5.63104 34.8608,-5.63104 11.86815,0 23.5973,1.89441 34.86044,5.63104 0.47343,0.15663 0.98143,0.18662 1.46473,0.0871 l 0.15382,-0.0317 0.049,0.14923 c 0.35631,1.07491 0.70485,2.17981 1.03717,3.28436 l 0.0924,0.30762 -0.30904,-0.0868 c -11.86533,-3.34257 -24.16245,-5.03732 -36.54919,-5.03732 -12.81042,0 -25.50936,1.81011 -37.74408,5.37951 l -0.32438,0.0945"
       style="fill:#201d1d;fill-opacity:1;fill-rule:nonzero;stroke:none;stroke-width:0.03527778"
       id="path24"
       inkscape:connector-curvature="0" />
    <path
       d="m -697.64221,-175.20703 c 22.59683,-7.49618 47.01364,-7.49618 69.61046,0 0.52212,0.17286 1.05834,0.19508 1.55575,0.0924 -0.73906,-2.23132 -1.45944,-4.18288 -2.10326,-5.76544 -21.87504,-6.77651 -45.26315,-6.90916 -67.19817,-0.399 -0.9204,1.78894 -1.85914,3.88162 -2.76648,6.22442 0.2988,-0.006 0.60254,-0.0536 0.9017,-0.1524"
       style="fill:#252323;fill-opacity:1;fill-rule:nonzero;stroke:none;stroke-width:0.03527778"
       id="path26"
       inkscape:connector-curvature="0" />
    <path
       d="m -623.79383,-165.85948 c -0.52705,-2.1015 -1.08408,-4.10633 -1.64676,-5.97535 -24.27217,-6.83719 -50.17206,-6.72289 -74.39036,0.3429 -0.62096,1.84609 -1.21324,3.80788 -1.75825,5.86493 0.35885,-7.1e-4 0.72651,-0.0522 1.08878,-0.1651 24.8987,-7.7791 51.7966,-7.80098 76.70659,-0.0674"
       style="fill:#252323;fill-opacity:1;fill-rule:nonzero;stroke:none;stroke-width:0.03527778"
       id="path28"
       inkscape:connector-curvature="0" />
    <path
       d="m -624.92342,-108.4964 c 0.57891,-1.80657 1.09643,-3.66889 1.55681,-5.58059 -0.50765,-0.0917 -1.07174,-0.0681 -1.64606,0.0945 -13.3597,3.72569 -25.68011,5.0479 -38.00017,5.09482 -12.27773,-0.0466 -24.55616,-1.36102 -37.86283,-5.05707 0.59768,2.05846 1.25582,4.06365 1.96945,6.00781 12.42448,3.06281 24.15929,4.24815 35.89338,4.28307 12.42342,-0.037 24.8472,-1.36313 38.08942,-4.84258"
       style="fill:#252323;fill-opacity:1;fill-rule:nonzero;stroke:none;stroke-width:0.03527778"
       id="path30"
       inkscape:connector-curvature="0" />
    <path
       d="m -662.11008,-99.255032 c -11.40072,-0.04304 -22.80285,-1.138418 -34.96769,-4.108808 0.92287,2.12549 1.91241,4.161019 2.96192,6.094241 10.9781,2.296584 21.49229,3.216981 32.00577,3.248731 10.64472,-0.0321 21.28979,-0.973667 32.4164,-3.334456 1.08267,-1.933928 2.06234,-3.969806 2.93899,-6.102706 -12.31018,3.04236 -23.83296,4.159606 -35.35539,4.202998"
       style="fill:#252323;fill-opacity:1;fill-rule:nonzero;stroke:none;stroke-width:0.03527778"
       id="path32"
       inkscape:connector-curvature="0" />
    <path
       d="m -629.94733,-139.58424 c -4.11233,0 -7.45807,4.45488 -7.45807,9.9307 0,5.47546 3.34574,9.92999 7.45807,9.92999 4.11268,0 7.45843,-4.45453 7.45843,-9.92999 0,-5.47582 -3.34575,-9.9307 -7.45843,-9.9307 z m 0,20.21346 c -4.30671,0 -7.81085,-4.61292 -7.81085,-10.28276 0,-5.67055 3.50414,-10.28348 7.81085,-10.28348 4.30707,0 7.81121,4.61293 7.81121,10.28348 0,5.66984 -3.50414,10.28276 -7.81121,10.28276"
       style="fill:#252323;fill-opacity:1;fill-rule:nonzero;stroke:none;stroke-width:0.03527778"
       id="path34"
       inkscape:connector-curvature="0" />
    <path
       d="m -614.75037,-128.54511 c 0,1.35572 -1.45803,2.45427 -3.25614,2.45427 h -8.46631 c -1.79846,0 -3.25614,-1.09855 -3.25614,-2.45427 v -2.94464 c 0,-1.35537 1.45768,-2.45392 3.25614,-2.45392 h 8.46631 c 1.79811,0 3.25614,1.09855 3.25614,2.45392 v 2.94464"
       style="fill:#eae6ce;fill-opacity:1;fill-rule:nonzero;stroke:none;stroke-width:0.03527778"
       id="path36"
       inkscape:connector-curvature="0" />
    <path
       d="m -626.47282,-133.76728 c -1.69792,0 -3.07975,1.02164 -3.07975,2.27753 v 2.94464 c 0,1.25624 1.38183,2.27788 3.07975,2.27788 h 8.46631 c 1.69828,0 3.07975,-1.02164 3.07975,-2.27788 v -2.94464 c 0,-1.25589 -1.38147,-2.27753 -3.07975,-2.27753 z m 8.46631,7.85283 h -8.46631 c -1.89265,0 -3.43253,-1.18004 -3.43253,-2.63066 v -2.94464 c 0,-1.45027 1.53988,-2.63031 3.43253,-2.63031 h 8.46631 c 1.89266,0 3.43253,1.18004 3.43253,2.63031 v 2.94464 c 0,1.45062 -1.53987,2.63066 -3.43253,2.63066"
       style="fill:#252323;fill-opacity:1;fill-rule:nonzero;stroke:none;stroke-width:0.03527778"
       id="path38"
       inkscape:connector-curvature="0" />
    <path
       d="m -620.85836,-131.90779 c 0,0.96379 -0.78105,1.74484 -1.74484,1.74484 v 0 c -0.96379,0 -1.74519,-0.78105 -1.74519,-1.74484 v -13.96048 c 0,-0.96379 0.7814,-1.74484 1.74519,-1.74484 v 0 c 0.96379,0 1.74484,0.78105 1.74484,1.74484 v 13.96048"
       style="fill:#eae6ce;fill-opacity:1;fill-rule:nonzero;stroke:none;stroke-width:0.03527778"
       id="path40"
       inkscape:connector-curvature="0" />
    <path
       d="m -622.6032,-147.43672 c -0.86501,0 -1.5688,0.70379 -1.5688,1.56845 v 13.96048 c 0,0.86501 0.70379,1.56845 1.5688,1.56845 0.86466,0 1.56845,-0.70344 1.56845,-1.56845 v -13.96048 c 0,-0.86466 -0.70379,-1.56845 -1.56845,-1.56845 z m 0,17.45016 c -1.05975,0 -1.92158,-0.86184 -1.92158,-1.92123 v -13.96048 c 0,-1.05939 0.86183,-1.92123 1.92158,-1.92123 1.05939,0 1.92123,0.86184 1.92123,1.92123 v 13.96048 c 0,1.05939 -0.86184,1.92123 -1.92123,1.92123"
       style="fill:#252323;fill-opacity:1;fill-rule:nonzero;stroke:none;stroke-width:0.03527778"
       id="path42"
       inkscape:connector-curvature="0" />
    <path
       d="m -622.89424,-143.97738 c 0,1.68628 -5.0352,2.47156 -6.76205,2.47156 -1.72649,0 -3.12631,-1.36701 -3.12631,-3.05364 0,-1.68663 1.39982,-3.05365 3.12631,-3.05365 1.72685,0 6.76205,1.94875 6.76205,3.63573"
       style="fill:#eae6ce;fill-opacity:1;fill-rule:nonzero;stroke:none;stroke-width:0.03527778"
       id="path44"
       inkscape:connector-curvature="0" />
    <path
       d="m -629.65629,-147.43672 c -1.62666,0 -2.94993,1.29082 -2.94993,2.87726 0,1.58679 1.32327,2.87725 2.94993,2.87725 2.01154,0 6.58566,-0.86712 6.58566,-2.29517 0,-1.49825 -4.82247,-3.45934 -6.58566,-3.45934 z m 0,6.10729 c -1.82139,0 -3.3027,-1.44886 -3.3027,-3.23003 0,-1.78118 1.48131,-3.23004 3.3027,-3.23004 1.73673,0 6.93844,1.98191 6.93844,3.81212 0,1.95686 -5.52591,2.64795 -6.93844,2.64795"
       style="fill:#252323;fill-opacity:1;fill-rule:nonzero;stroke:none;stroke-width:0.03527778"
       id="path46"
       inkscape:connector-curvature="0" />
    <path
       d="m -622.16681,-143.68669 c 0,1.68663 5.03519,2.47191 6.76169,2.47191 1.72684,0 3.12631,-1.36701 3.12631,-3.05364 0,-1.68663 -1.39947,-3.05365 -3.12631,-3.05365 -1.7265,0 -6.76169,1.9484 -6.76169,3.63538"
       style="fill:#eae6ce;fill-opacity:1;fill-rule:nonzero;stroke:none;stroke-width:0.03527778"
       id="path48"
       inkscape:connector-curvature="0" />
    <path
       d="m -615.40512,-147.14568 c -1.76319,0 -6.58531,1.96074 -6.58531,3.45899 0,1.4284 4.57377,2.29552 6.58531,2.29552 1.62666,0 2.94993,-1.29081 2.94993,-2.87725 0,-1.5868 -1.32327,-2.87726 -2.94993,-2.87726 z m 0,6.10729 c -1.41217,0 -6.93808,-0.69109 -6.93808,-2.6483 0,-1.83021 5.20135,-3.81176 6.93808,-3.81176 1.82139,0 3.3027,1.44885 3.3027,3.23003 0,1.78117 -1.48131,3.23003 -3.3027,3.23003"
       style="fill:#252323;fill-opacity:1;fill-rule:nonzero;stroke:none;stroke-width:0.03527778"
       id="path50"
       inkscape:connector-curvature="0" />
    <path
       d="m -612.13311,-118.96543 c 1.50248,2.27824 -0.67204,2.66629 -2.27824,2.66629 l -2.13254,0.0967 c -1.60655,0 -3.49038,0.29104 -2.32692,-3.00531 l -0.24271,-11.82723 c 0,-1.6069 1.3021,-2.90865 2.90865,-2.90865 h 1.16346 c 1.6062,0 4.02308,1.30175 4.02308,2.90865 l -1.11478,12.06959"
       style="fill:#eae6ce;fill-opacity:1;fill-rule:nonzero;stroke:none;stroke-width:0.03527778"
       id="path52"
       inkscape:connector-curvature="0" />
    <path
       d="m -616.20487,-133.76728 c -1.50671,0 -2.73226,1.22555 -2.73226,2.73226 l 0.24341,11.8558 -0.0106,0.03 c -0.40005,1.13312 -0.4572,1.91417 -0.16933,2.32057 0.26775,0.37889 0.8329,0.4565 1.59879,0.4565 0.12065,0 0.24235,-0.002 0.36406,-0.004 0.12277,-0.001 0.24554,-0.003 0.36689,-0.003 l 2.12443,-0.0967 c 1.35925,0 2.25178,-0.27552 2.52095,-0.77576 0.20426,-0.37923 0.0758,-0.92322 -0.38206,-1.61713 l -0.0339,-0.0515 1.12043,-12.13133 c -7.1e-4,-1.4919 -2.32834,-2.71603 -3.8474,-2.71603 z m -1.06997,17.74789 c -0.70591,0 -1.49155,-0.0469 -1.88666,-0.60536 -0.36513,-0.51576 -0.32914,-1.34585 0.11359,-2.61126 l -0.242,-11.79548 c 0,-1.70462 1.38395,-3.08857 3.08504,-3.08857 h 1.16346 c 1.65171,0 4.19947,1.32468 4.19947,3.08504 l -1.10984,12.02478 c 0.50624,0.78705 0.62865,1.43475 0.36407,1.92652 -0.42792,0.79411 -1.77165,0.96097 -2.82364,0.96097 l -2.12478,0.0967 c -0.12735,0 -0.24871,0.001 -0.37006,0.003 -0.12312,0.002 -0.24659,0.004 -0.36865,0.004"
       style="fill:#252323;fill-opacity:1;fill-rule:nonzero;stroke:none;stroke-width:0.03527778"
       id="path54"
       inkscape:connector-curvature="0" />
    <path
       d="m -389.51691,-199.64501 -15.79951,0.0656 c -1.52717,0 1.06186,-4.80554 2.58869,-4.80554 h 11.05958 c 1.52718,0 3.67771,4.73992 2.15124,4.73992"
       style="fill:#252323;fill-opacity:1;fill-rule:nonzero;stroke:none;stroke-width:0.03527778"
       id="path56"
       inkscape:connector-curvature="0" />
    <path
       d="m -379.36714,-156.49605 c -0.50095,-5.43737 -1.98967,-5.53438 -6.29356,-14.75423 -2.88149,-6.17361 -3.85797,-11.52313 -4.18535,-14.66638 v -9.69046 c 0,-3.7091 -3.69606,-2.50154 -7.76817,-2.50154 -4.07211,0 -6.97794,-1.20756 -6.97794,2.50154 v 12.84817 c -0.54117,3.13302 -1.62984,7.34554 -3.81847,12.03537 -4.19806,8.99654 -5.71888,9.30698 -6.2551,14.36864 -0.0409,0.20461 -0.0639,0.41698 -0.0639,0.635 v 0.0596 c -0.0243,0.29668 -0.0469,0.60395 -0.0663,0.93345 -0.0173,0.28963 0.0141,0.5468 0.0663,0.79057 v 60.065363 c 0,1.668991 1.28023,3.022247 2.85997,3.022247 h 29.74058 c 1.58009,0 2.86068,-1.353256 2.86068,-3.022247 v -61.849003 c 0,-0.26882 -0.0388,-0.52811 -0.0988,-0.77611"
       style="fill:#252323;fill-opacity:1;fill-rule:nonzero;stroke:none;stroke-width:0.03527778"
       id="path58"
       inkscape:connector-curvature="0" />
    <path
       d="m -387.77525,-93.569312 c 0,0 3.02789,-58.815468 -0.70167,-66.883848 -6.4509,-13.95554 -6.96242,-25.91435 -6.59201,-33.70545 h 1.22943 c 0,0 -0.17603,13.51739 2.28142,19.48603 2.4578,5.96795 6.84671,11.76197 7.37305,18.95864 0.5267,7.19702 0.17604,54.41985 0.17604,54.41985 l -3.5e-4,7.635878 -3.76591,0.0889"
       style="fill:#eae6ce;fill-opacity:1;fill-rule:nonzero;stroke:none;stroke-width:0.03527778"
       id="path60"
       inkscape:connector-curvature="0" />
    <path
       d="m -449.31945,-1.0861426 c -3.1309,-5.478992 -1.94028,-9.5250004 -2.46945,-20.8138904 -0.52916,-11.288889 1.94028,-25.929168 1.94028,-25.929168 l -17.50166,-0.07937 v -0.01623 l -1.83268,0.0081 -1.83233,-0.0081 v 0.01623 l -17.50166,0.07937 c 0,0 2.46945,14.640279 1.94028,25.929168 -0.52916,11.28889 0.66146,15.3348984 -2.46944,20.8138904 -1.41111,2.4694446 1.94028,6.5263893 10.05417,6.1736115 l 9.80898,-0.1535288 9.80934,0.1535288 c 8.11389,0.3527778 11.46528,-3.7041669 10.05417,-6.1736115"
       style="fill:#252323;fill-opacity:1;fill-rule:nonzero;stroke:none;stroke-width:0.03527778"
       id="path62"
       inkscape:connector-curvature="0" />
    <path
       d="m -489.79823,-51.479746 c -0.77012,0 -1.81787,0.166159 -2.43629,0.958145 -0.68439,0.876653 -0.77082,2.3622 -0.25717,4.416425 0.78916,3.156303 1.84009,5.452181 2.68428,7.296856 1.1864,2.591153 2.04294,4.463345 1.30458,6.75252 -0.48507,1.502833 -1.32786,2.645128 -2.00484,3.563056 -1.14159,1.54693 -1.45697,2.077508 -0.49812,2.935464 1.11654,0.999419 2.36925,1.208969 3.22333,1.209322 3.5e-4,0 3.5e-4,0 3.5e-4,0 0.56339,0 0.98954,-0.09031 1.14582,-0.129117 l 35.32506,-22.767573 c 0.0515,-0.03104 0.85231,-0.526345 1.02199,-1.654175 0.20885,-1.389239 -0.629,-3.184526 -2.42288,-5.192184 -2.37101,-2.653242 -5.27826,-3.998384 -8.64093,-3.998384 -3.31964,0 -7.10989,1.299281 -11.26596,3.861153 l -0.0695,0.04269 -1.26541,0.316794 -0.20215,-0.152753 c -0.0356,-0.02681 -3.60115,-2.684992 -7.30885,-2.684992 -2.29164,0 -4.16877,1.021645 -5.57953,3.036712 -0.74366,1.061861 -0.84773,1.86443 -0.84878,1.872544 l -0.072,0.597959 -0.5842,-0.144286 c -0.005,-0.0014 -0.55139,-0.136173 -1.24883,-0.136173 z m 2.01612,28.190121 c 0,0 0,0 -3.5e-4,0 -1.03893,-3.52e-4 -2.56329,-0.256822 -3.92889,-1.478844 -1.72226,-1.540933 -0.66781,-2.970742 0.35207,-4.352925 0.66428,-0.900289 1.41747,-1.920875 1.84891,-3.259667 0.61278,-1.897592 -0.13229,-3.52425 -1.25906,-5.986639 -0.86254,-1.884187 -1.93605,-4.229453 -2.74885,-7.480654 -0.59654,-2.386542 -0.44555,-4.177947 0.44944,-5.324475 0.69744,-0.893233 1.82845,-1.36525 3.27061,-1.36525 0.37888,0 0.71896,0.03316 0.97966,0.0702 0.13088,-0.429684 0.39229,-1.073856 0.90699,-1.808692 1.62031,-2.314575 3.78954,-3.488267 6.44666,-3.488267 3.5747,0 6.88199,2.146653 7.73783,2.748139 l 0.62265,-0.155575 c 4.29895,-2.638072 8.25183,-3.975453 11.75139,-3.975453 3.677,0 6.84953,1.464028 9.42975,4.351867 2.05281,2.296583 2.95239,4.344106 2.67546,6.086123 -0.25788,1.62313 -1.46014,2.337858 -1.51094,2.367491 l -35.43618,22.839893 -0.0706,0.02152 c -0.0258,0.0078 -0.63676,0.191205 -1.51659,0.191205"
       style="fill:#252323;fill-opacity:1;fill-rule:nonzero;stroke:none;stroke-width:0.03527778"
       id="path64"
       inkscape:connector-curvature="0" />
    <path
       d="m -450.9066,-43.03742 -0.58808,6.820606 4.82142,-0.470606 c 0,0 1.29363,-0.58808 1.41111,2.469445 0.11747,3.057525 -0.11783,18.815051 -0.11783,18.815051 0,0 3.5e-4,1.528586 -1.64606,2.234142 -1.64642,0.705555 -5.64445,1.999192 -5.64445,1.999192 l 1.41111,6.467475 c 0,0 7.29086,-2.9396974 9.17223,-4.2333336 1.88136,-1.2936364 2.82187,-2.5872724 2.70439,-4.8214144 -0.11747,-2.234142 0.2353,-23.518285 0.2353,-23.518285 0,0 -1.64641,-5.174192 -5.64444,-5.526969 -3.99803,-0.352778 -6.1147,-0.235303 -6.1147,-0.235303"
       style="fill:#252323;fill-opacity:1;fill-rule:nonzero;stroke:none;stroke-width:0.03527778"
       id="path66"
       inkscape:connector-curvature="0" />
    <path
       d="m -457.17969,2.6264205 c -0.13688,0.7430558 1.56739,0.7867297 1.59102,-0.1244248 0.0356,-1.3660614 -0.0487,-46.0040247 -0.0487,-46.0040247 l -0.53657,-0.151694 c 0,0 -0.77717,45.0415759 -1.00577,46.2801435"
       style="fill:#eae6ce;fill-opacity:1;fill-rule:nonzero;stroke:none;stroke-width:0.03527778"
       id="path68"
       inkscape:connector-curvature="0" />
    <path
       d="m -634.73982,-33.713503 c 2.47051,-10.806995 -0.30832,-23.77546 -0.30832,-23.77546 l -11.63391,0.149225 -11.6332,-0.149225 c 0,0 -2.77918,12.968465 -0.30903,23.77546 2.47015,10.806642 4.78613,16.827501 5.09481,19.143135 0.30868,2.315986 0.77188,2.77883 -1.08055,4.9402999 -1.85279,2.1614696 -2.16147,1.3895918 -2.47016,7.5649672 l 10.24714,3.527e-4 v 0 h 0.15099 0.15134 v 0 l 10.24714,-3.527e-4 c -0.30868,-6.1753754 -0.61736,-5.4034976 -2.47015,-7.5649672 -1.85244,-2.1614699 -1.38924,-2.6243139 -1.08056,-4.9402999 0.30868,-2.315634 2.62467,-8.336493 5.09446,-19.143135"
       style="fill:#252323;fill-opacity:1;fill-rule:nonzero;stroke:none;stroke-width:0.03527778"
       id="path70"
       inkscape:connector-curvature="0" />
    <path
       d="m -658.71283,-55.348307 c -1.25624,-2.047522 -1.55751,-3.601156 -0.94897,-4.890206 0.95673,-2.024945 4.18429,-3.316111 10.46444,-4.186767 10.53642,-1.461911 14.29421,6.864703 14.3309,6.949017 l -0.647,0.282222 c -0.14181,-0.324202 -3.59163,-7.914217 -13.58688,-6.532386 -5.9376,0.823383 -9.09073,2.027414 -9.92329,3.789539 -0.49777,1.053042 -0.20778,2.39395 0.91229,4.219223 l -0.60149,0.369358"
       style="fill:#252323;fill-opacity:1;fill-rule:nonzero;stroke:none;stroke-width:0.03527778"
       id="path72"
       inkscape:connector-curvature="0" />
    <path
       d="m -637.28299,-57.354907 0.71684,0.06244 c 0.78141,22.090946 -0.0434,21.970649 -1.12395,27.379086 -0.38594,1.932869 -1.68592,7.732183 -1.68592,7.732183 l -0.23248,-0.464961 c 0,0 2.73226,-10.580864 2.44193,-18.604443 -0.21096,-5.809897 -0.11642,-16.104306 -0.11642,-16.104306"
       style="fill:#eae6ce;fill-opacity:1;fill-rule:nonzero;stroke:none;stroke-width:0.03527778"
       id="path74"
       inkscape:connector-curvature="0" />
    <path
       d="m -656.79443,-57.359493 0.36478,0.06279 c 0,0 -0.62054,7.674328 -0.23284,15.503526 0.007,0.147108 -0.15522,-0.03845 -0.15522,-0.03845 0,0 -1.04634,-7.945614 0.0233,-15.527867"
       style="fill:#eae6ce;fill-opacity:1;fill-rule:nonzero;stroke:none;stroke-width:0.03527778"
       id="path76"
       inkscape:connector-curvature="0" />
    <path
       d="m -637.39941,-2.6464788 h -18.75896 v -0.930275 h 18.75896 v 0.930275"
       style="fill:#eae6ce;fill-opacity:1;fill-rule:nonzero;stroke:none;stroke-width:0.03527778"
       id="path78"
       inkscape:connector-curvature="0" />
    <path
       d="m -604.25241,-64.149055 c 2.36573,3.698523 5.64904,9.596262 3.45899,13.426018 -0.74683,-1.270706 -0.47448,-1.748367 -0.56585,0.175683 -4.6288,-3.868914 0.22048,-9.007828 -2.89314,-13.601701"
       style="fill:#252323;fill-opacity:1;fill-rule:evenodd;stroke:none;stroke-width:0.03527778"
       id="path80"
       inkscape:connector-curvature="0" />
    <path
       d="m -612.96037,-26.802233 c 3.02366,5.046839 5.54143,11.639551 3.13125,16.051037 -1.08302,-1.7399 -0.35172,-2.054931 -1.04492,-0.03175 -4.53708,-5.413728 1.38641,-9.439276 -2.08633,-16.019287"
       style="fill:#252323;fill-opacity:1;fill-rule:evenodd;stroke:none;stroke-width:0.03527778"
       id="path82"
       inkscape:connector-curvature="0" />
    <path
       d="m -615.87149,-19.481035 c 1.93569,4.240036 4.35327,13.3247699 0.39722,16.1826229 0.30233,-2.3177502 -0.0377,-2.3226891 -0.31891,0.099131 -4.46934,-5.7658003 2.97604,-9.5267649 -0.0783,-16.2817529"
       style="fill:#252323;fill-opacity:1;fill-rule:evenodd;stroke:none;stroke-width:0.03527778"
       id="path84"
       inkscape:connector-curvature="0" />
    <path
       d="m -608.6145,-53.892393 c 1.70039,1.750483 7.67291,3.991681 7.82355,9.929989 -1.12465,-1.339497 -1.08303,-1.423458 -0.41487,0.390878 -4.36492,-0.736247 -3.68688,-8.661048 -7.40868,-10.320867"
       style="fill:#252323;fill-opacity:1;fill-rule:evenodd;stroke:none;stroke-width:0.03527778"
       id="path86"
       inkscape:connector-curvature="0" />
    <path
       d="m -599.05669,-43.46287 c -2.50755,-4.881034 3.09104,-7.239001 1.7346,-12.205759 1.43087,4.243564 1.57375,9.595909 -1.15993,12.304537 -0.31009,-1.422048 0.0653,-1.913114 -0.57467,-0.09878"
       style="fill:#252323;fill-opacity:1;fill-rule:evenodd;stroke:none;stroke-width:0.03527778"
       id="path88"
       inkscape:connector-curvature="0" />
    <path
       d="m -600.84175,-34.536886 c -0.98037,-1.514475 -0.86536,-2.005542 -0.53128,0.160514 -4.58364,-1.585031 -2.88326,-10.137776 -6.88481,-12.163073 3.18558,3.292828 8.0839,6.136217 7.41609,12.002559"
       style="fill:#252323;fill-opacity:1;fill-rule:evenodd;stroke:none;stroke-width:0.03527778"
       id="path90"
       inkscape:connector-curvature="0" />
    <path
       d="m -594.74399,-47.610832 c 0.69604,-0.750711 -0.4452,2.947812 -0.53516,3.844926 -0.31609,3.291417 -0.63218,6.653036 -3.40677,8.410222 -0.0289,-1.260122 0.29351,-1.664758 -0.59338,-0.107597 -1.82562,-4.96182 4.6101,-7.395634 4.53531,-12.147551"
       style="fill:#252323;fill-opacity:1;fill-rule:evenodd;stroke:none;stroke-width:0.03527778"
       id="path92"
       inkscape:connector-curvature="0" />
    <path
       d="m -608.06699,-38.374403 c 1.43228,2.024239 7.07072,7.344128 5.37069,12.155664 -0.88583,-1.084439 -1.04246,-1.994252 -0.51365,0.156987 -4.37232,-2.239787 -1.38394,-9.240662 -4.85704,-12.312651"
       style="fill:#252323;fill-opacity:1;fill-rule:evenodd;stroke:none;stroke-width:0.03527778"
       id="path94"
       inkscape:connector-curvature="0" />
    <path
       d="m -592.51478,-39.459548 c -0.98425,4.483453 -2.51601,10.768543 -7.83096,13.743165 0.066,-1.66617 1.28129,-1.819628 -1.04105,-0.317853 0.22613,-5.933722 8.39682,-7.618589 8.87201,-13.425312"
       style="fill:#252323;fill-opacity:1;fill-rule:evenodd;stroke:none;stroke-width:0.03527778"
       id="path96"
       inkscape:connector-curvature="0" />
    <path
       d="m -610.63239,-30.615056 c 1.3395,1.853495 7.20478,7.355418 5.30719,12.007146 -0.56939,-0.947561 -0.57468,-1.511653 -0.51259,0.154516 -4.47463,-2.553405 -1.11195,-9.167284 -4.7946,-12.161662"
       style="fill:#252323;fill-opacity:1;fill-rule:evenodd;stroke:none;stroke-width:0.03527778"
       id="path98"
       inkscape:connector-curvature="0" />
    <path
       d="m -593.2408,-29.890097 c -1.95333,3.127375 -4.04707,10.410473 -10.87614,12.557478 1.24072,-2.030589 1.71415,-1.94063 -0.47695,-0.497063 0.89817,-5.562601 9.68304,-6.915504 11.35309,-12.060415"
       style="fill:#252323;fill-opacity:1;fill-rule:evenodd;stroke:none;stroke-width:0.03527778"
       id="path100"
       inkscape:connector-curvature="0" />
    <path
       d="m -619.24934,-12.892204 c 0.92851,4.2294526 1.03999,12.61215872 -3.16548,15.8725312 -0.25294,-1.8242493 0.32914,-2.39818353 -0.72848,-0.1248834 -2.74038,-6.3422393 5.068,-9.3521395 3.89396,-15.7476478"
       style="fill:#252323;fill-opacity:1;fill-rule:evenodd;stroke:none;stroke-width:0.03527778"
       id="path102"
       inkscape:connector-curvature="0" />
    <path
       d="m -608.26278,-9.5037736 c 1.8168,-1.6065504 2.26448,-1.3705414 -0.5073,-0.5404554 1.657,-5.416903 12.00186,-6.183842 14.68438,-11.044415 -4.203,4.140553 -5.52627,9.818512 -14.17708,11.5848704"
       style="fill:#252323;fill-opacity:1;fill-rule:evenodd;stroke:none;stroke-width:0.03527778"
       id="path104"
       inkscape:connector-curvature="0" />
    <path
       d="m -630.50154,8.0447347 c -0.13653,-1.6685332 1.03258,-1.757539 -1.14336,-0.3480859 -0.33937,-6.3913459 7.0919,-8.6215719 7.74595,-14.4826223 -0.39829,3.7874225 -1.4785,11.8008055 -6.60259,14.8307082"
       style="fill:#252323;fill-opacity:1;fill-rule:evenodd;stroke:none;stroke-width:0.03527778"
       id="path106"
       inkscape:connector-curvature="0" />
    <path
       d="m -628.83643,8.932747 c 1.39171,0.9504186 2.04047,-0.021484 -0.266,1.167765 5.3774,3.470557 11.00949,-1.8606559 16.42181,0.489585 -3.48686,-1.5444964 -10.97139,-4.5910502 -16.15581,-1.65735"
       style="fill:#252323;fill-opacity:1;fill-rule:evenodd;stroke:none;stroke-width:0.03527778"
       id="path108"
       inkscape:connector-curvature="0" />
    <path
       d="m -598.62137,-11.369968 c -2.93123,3.0427083 -8.14352,9.4216365 -15.58501,9.2339587 2.07468,-1.1990917 2.74037,-1.0230556 -0.19509,-0.6399389 2.53294,-5.4384226 12.87674,-3.6988752 15.7801,-8.5940198"
       style="fill:#252323;fill-opacity:1;fill-rule:evenodd;stroke:none;stroke-width:0.03527778"
       id="path110"
       inkscape:connector-curvature="0" />
    <path
       d="m -603.86294,-2.2675954 c -4.58223,3.3221085 -11.0243,7.914958 -17.62584,7.0802857 1.76883,-1.4753167 2.62926,-1.4185548 0.12912,-0.7338131 3.80824,-5.3332948 13.10182,-1.7473437 17.49672,-6.3464726"
       style="fill:#252323;fill-opacity:1;fill-rule:evenodd;stroke:none;stroke-width:0.03527778"
       id="path112"
       inkscape:connector-curvature="0" />
    <path
       d="m -688.79596,-64.049572 c -2.36573,3.69817 -5.64868,9.596262 -3.45898,13.425665 0.74683,-1.270353 0.47448,-1.748367 0.56585,0.175684 4.6288,-3.868915 -0.22048,-9.007829 2.89313,-13.601349"
       style="fill:#252323;fill-opacity:1;fill-rule:evenodd;stroke:none;stroke-width:0.03527778"
       id="path114"
       inkscape:connector-curvature="0" />
    <path
       d="m -680.08799,-26.70275 c -3.02366,5.046487 -5.54108,11.639198 -3.1309,16.050685 1.08267,-1.7399 0.35136,-2.054578 1.04457,-0.03175 4.53708,-5.413728 -1.38642,-9.439276 2.08633,-16.018935"
       style="fill:#252323;fill-opacity:1;fill-rule:evenodd;stroke:none;stroke-width:0.03527778"
       id="path116"
       inkscape:connector-curvature="0" />
    <path
       d="m -677.17687,-19.381552 c -1.93534,4.239684 -4.35328,13.3244175 -0.39723,16.1826232 -0.30233,-2.3181029 0.0378,-2.3230418 0.31892,0.098778 4.46969,-5.7658004 -2.97569,-9.5267642 0.0783,-16.2814012"
       style="fill:#252323;fill-opacity:1;fill-rule:evenodd;stroke:none;stroke-width:0.03527778"
       id="path118"
       inkscape:connector-curvature="0" />
    <path
       d="m -684.43386,-53.79291 c -1.70039,1.750484 -7.67292,3.991328 -7.82355,9.929637 1.12465,-1.339497 1.08302,-1.423458 0.41522,0.391231 4.36456,-0.736248 3.68652,-8.661401 7.40833,-10.320868"
       style="fill:#252323;fill-opacity:1;fill-rule:evenodd;stroke:none;stroke-width:0.03527778"
       id="path120"
       inkscape:connector-curvature="0" />
    <path
       d="m -693.99167,-43.36374 c 2.50755,-4.881033 -3.09104,-7.238647 -1.73461,-12.205406 -1.43051,4.243211 -1.57374,9.595909 1.16029,12.304184 0.30974,-1.422047 -0.0656,-1.912761 0.57432,-0.09878"
       style="fill:#252323;fill-opacity:1;fill-rule:evenodd;stroke:none;stroke-width:0.03527778"
       id="path122"
       inkscape:connector-curvature="0" />
    <path
       d="m -692.20661,-34.437756 c 0.98037,-1.514475 0.86536,-2.005542 0.53128,0.160514 4.58364,-1.585031 2.88325,-10.137423 6.88481,-12.16272 -3.18558,3.292475 -8.0839,6.135864 -7.41609,12.002206"
       style="fill:#252323;fill-opacity:1;fill-rule:evenodd;stroke:none;stroke-width:0.03527778"
       id="path124"
       inkscape:connector-curvature="0" />
    <path
       d="m -698.30438,-47.511701 c -0.69603,-0.750711 0.44556,2.947811 0.53517,3.844925 0.31609,3.291417 0.63217,6.653037 3.40712,8.410576 0.0289,-1.260475 -0.29386,-1.665111 0.59338,-0.10795 1.82562,-4.961467 -4.61046,-7.395634 -4.53567,-12.147551"
       style="fill:#252323;fill-opacity:1;fill-rule:evenodd;stroke:none;stroke-width:0.03527778"
       id="path126"
       inkscape:connector-curvature="0" />
    <path
       d="m -684.98137,-38.275273 c -1.43228,2.024239 -7.07073,7.344129 -5.37069,12.155665 0.88582,-1.084439 1.04246,-1.9939 0.51364,0.156986 4.37233,-2.239433 1.38395,-9.240662 4.85705,-12.312651"
       style="fill:#252323;fill-opacity:1;fill-rule:evenodd;stroke:none;stroke-width:0.03527778"
       id="path128"
       inkscape:connector-curvature="0" />
    <path
       d="m -700.53362,-39.360417 c 0.98429,4.483453 2.51605,10.768542 7.83135,13.743165 -0.066,-1.66617 -1.28164,-1.819276 1.0407,-0.3175 -0.22613,-5.934076 -8.39664,-7.618943 -8.87205,-13.425665"
       style="fill:#252323;fill-opacity:1;fill-rule:evenodd;stroke:none;stroke-width:0.03527778"
       id="path130"
       inkscape:connector-curvature="0" />
    <path
       d="m -682.41597,-30.515925 c -1.3395,1.853495 -7.20478,7.355417 -5.30719,12.007145 0.56938,-0.947208 0.57467,-1.511653 0.51259,0.154517 4.47463,-2.553406 1.11195,-9.167284 4.7946,-12.161662"
       style="fill:#252323;fill-opacity:1;fill-rule:evenodd;stroke:none;stroke-width:0.03527778"
       id="path132"
       inkscape:connector-curvature="0" />
    <path
       d="m -699.80753,-29.790967 c 1.9533,3.127376 4.04739,10.410826 10.87646,12.557832 -1.24107,-2.030589 -1.71415,-1.940631 0.4766,-0.497417 -0.89817,-5.5626 -9.68304,-6.915503 -11.35306,-12.060415"
       style="fill:#252323;fill-opacity:1;fill-rule:evenodd;stroke:none;stroke-width:0.03527778"
       id="path134"
       inkscape:connector-curvature="0" />
    <path
       d="m -673.79902,-12.793074 c -0.92851,4.229806 -1.03999,12.61215928 3.16547,15.8728845 0.25295,-1.8242493 -0.32914,-2.39846572 0.72884,-0.1252714 2.74003,-6.3418512 -5.06836,-9.3521042 -3.89431,-15.7476131"
       style="fill:#252323;fill-opacity:1;fill-rule:evenodd;stroke:none;stroke-width:0.03527778"
       id="path136"
       inkscape:connector-curvature="0" />
    <path
       d="m -684.78558,-9.4046431 c -1.81645,-1.6065499 -2.26448,-1.3705419 0.50765,-0.5401028 -1.65735,-5.4172561 -12.00221,-6.1841951 -14.68438,-11.0447671 4.20264,4.140553 5.52627,9.818511 14.17673,11.5848699"
       style="fill:#252323;fill-opacity:1;fill-rule:evenodd;stroke:none;stroke-width:0.03527778"
       id="path138"
       inkscape:connector-curvature="0" />
    <path
       d="m -662.54682,8.1439711 c 0.13653,-1.668251 -1.03258,-1.7572921 1.14335,-0.3478389 0.33938,-6.391346 -7.09189,-8.62192473 -7.74594,-14.4829751 0.39829,3.7874225 1.47885,11.8007702 6.60259,14.830814"
       style="fill:#252323;fill-opacity:1;fill-rule:evenodd;stroke:none;stroke-width:0.03527778"
       id="path140"
       inkscape:connector-curvature="0" />
    <path
       d="m -664.21193,9.0322303 c -1.39136,0.9500306 -2.04047,-0.021907 0.26599,1.1673417 -5.37704,3.470593 -11.00949,-1.8606206 -16.42145,0.48962 3.4865,-1.5444961 10.97104,-4.5910852 16.15546,-1.6569617"
       style="fill:#252323;fill-opacity:1;fill-rule:evenodd;stroke:none;stroke-width:0.03527778"
       id="path142"
       inkscape:connector-curvature="0" />
    <path
       d="m -694.427,-11.270838 c 2.93123,3.0427089 8.14388,9.4216371 15.58537,9.2343121 -2.07504,-1.1994446 -2.74037,-1.0234084 0.19474,-0.6402918 -2.53295,-5.4384225 -12.87639,-3.6988752 -15.78011,-8.5940203"
       style="fill:#252323;fill-opacity:1;fill-rule:evenodd;stroke:none;stroke-width:0.03527778"
       id="path144"
       inkscape:connector-curvature="0" />
    <path
       d="m -689.18542,-2.1681121 c 4.58223,3.3221086 11.0243,7.91457 17.62583,7.0798977 -1.76883,-1.475352 -2.6289,-1.4185548 -0.12911,-0.7338131 -3.80789,-5.3329067 -13.10182,-1.7472379 -17.49672,-6.3460846"
       style="fill:#252323;fill-opacity:1;fill-rule:evenodd;stroke:none;stroke-width:0.03527778"
       id="path146"
       inkscape:connector-curvature="0" />
    <path
       d="m -647.61091,13.519564 c 0,-2.198829 -1.11831,-4.3606865 -3.59657,-5.0313876 -0.46602,0.1119011 -0.96908,0.1675694 -1.50989,0.1863372 -0.67063,5.5533574 -2.12408,8.7400704 -3.83858,10.1564024 1.04352,0.186302 2.21756,0.409963 3.93206,0.409963 3.1683,0 5.01298,-2.907242 5.01298,-5.721315 z m -8.64694,-2.478264 c -0.35419,0.13021 -0.74542,0.186302 -1.15535,0.186302 -2.8702,0 -4.34234,-2.2923856 -4.34234,-4.8827977 0,-3.4474505 2.57175,-7.4538774 7.92057,-7.4538774 3.50308,0 6.41032,1.62101398 6.41032,5.0312817 0,1.9011196 -0.91299,3.6339994 -3.05611,4.3793836 2.70192,0.8385528 3.93206,3.0377698 3.93206,5.2927958 0,3.037734 -2.27365,6.186982 -6.29885,6.186982 -1.9752,0 -3.37291,-0.279753 -4.36068,-0.502991 -0.54046,0.298062 -1.11831,0.446899 -1.67746,0.446899 -0.37289,0 -0.72637,-0.05567 -1.08056,-0.167181 l 0.16757,-0.876406 c 0.39158,-0.05567 0.74542,-0.07444 1.08091,-0.07444 0.40993,0 0.78246,0.01877 1.17404,0.07444 1.7145,-1.09915 3.05612,-4.770508 3.7458,-9.7277068 0.48436,-3.4848097 0.96908,-5.9451526 1.47214,-7.4356388 l 1.02517,0.2607381 c -0.48471,1.3790084 -0.95038,3.1867124 -1.34196,6.1683551 0.40992,0.018627 0.78281,0.056092 1.13665,0.1121833 1.91946,-0.5965472 3.09386,-2.3111179 3.09386,-4.0069208 0,-3.1865713 -2.75837,-4.67741029 -5.31142,-4.67741029 -4.75227,0 -7.06297,3.70836499 -7.06297,6.80194409 0,2.2175259 1.1744,4.1186811 3.52249,4.1186811 0.2794,0 0.5401,-0.0375 0.78246,-0.09317 l 0.22366,0.838553"
       style="fill:#252323;fill-opacity:1;fill-rule:nonzero;stroke:none;stroke-width:0.03527778"
       id="path148"
       inkscape:connector-curvature="0" />
    <path
       d="m -644.55233,10.910772 c 1.56528,-0.72704 2.2733,-2.031365 2.2733,-2.9072418 0,-0.4473222 -0.13017,-0.6709481 -0.37218,-0.6709481 -0.80151,0 -1.58433,1.8450279 -1.90112,3.5781899 z m 3.98815,0.05567 c 0.0931,0 0.33549,0.130528 0.33549,0.186338 -0.61489,1.714817 -1.71485,4.435898 -3.429,4.435898 -1.4351,0 -1.99425,-1.379431 -1.99425,-3.038157 0,-2.534074 1.30457,-5.7210686 3.09351,-5.7210686 0.70838,0 1.06221,0.4847873 1.06221,1.1553473 0,1.4725651 -1.6958,3.1496353 -3.11185,3.4106563 -0.0561,0.372603 -0.0935,0.726334 -0.0935,1.080487 0,1.248516 0.35418,2.236294 1.28622,2.236294 1.21109,0 2.19887,-2.012491 2.85115,-3.745795"
       style="fill:#252323;fill-opacity:1;fill-rule:nonzero;stroke:none;stroke-width:0.03527778"
       id="path150"
       inkscape:connector-curvature="0" />
    <path
       d="m -639.61309,10.910772 c 1.56492,-0.72704 2.2733,-2.031365 2.2733,-2.9072418 0,-0.4473222 -0.13053,-0.6709481 -0.37253,-0.6709481 -0.80151,0 -1.58433,1.8450279 -1.90077,3.5781899 z m 3.98816,0.05567 c 0.0928,0 0.33513,0.130528 0.33513,0.186338 -0.61489,1.714817 -1.7145,4.435898 -3.429,4.435898 -1.43474,0 -1.9939,-1.379431 -1.9939,-3.038157 0,-2.534074 1.30458,-5.7210686 3.09351,-5.7210686 0.70803,0 1.06222,0.4847873 1.06222,1.1553473 0,1.4725651 -1.69616,3.1496353 -3.11221,3.4106563 -0.0557,0.372603 -0.0931,0.726334 -0.0931,1.080487 0,1.248516 0.35419,2.236294 1.28587,2.236294 1.21109,0 2.19887,-2.012491 2.85151,-3.745795"
       style="fill:#252323;fill-opacity:1;fill-rule:nonzero;stroke:none;stroke-width:0.03527778"
       id="path152"
       inkscape:connector-curvature="0" />
    <path
       d="m -633.81695,10.519153 c 0,-0.8942207 -0.39158,-1.4717532 -0.65228,-2.087033 -0.24236,0.9694334 -0.54046,1.956541 -0.81986,2.720658 0,0 -0.33549,-0.05581 -0.33549,-0.186338 0.33549,-0.9686216 0.63359,-2.1427014 0.83855,-3.2609717 -0.14887,-0.4473223 -0.24236,-0.9321095 -0.24236,-1.4721771 0,-0.596265 0.11183,-1.2858398 0.3168,-1.8637956 l 0.95073,0.2420055 c 0,0.8764412 -0.16792,2.2179493 -0.44767,2.9820661 0.46637,0.7267928 1.32327,1.5095009 1.32327,2.7580168 0,1.379008 -1.02482,3.22446 -1.02482,4.677869 0,2.180202 1.22978,3.037346 2.81411,3.037346 1.82597,0 2.81375,-1.528092 2.81375,-3.000269 0,-0.875595 -0.33549,-1.695803 -1.02482,-2.236294 l 0.65194,-0.801158 c 0.8763,0.633589 1.30492,1.67707 1.30492,2.739249 0,1.88214 -1.32327,3.857696 -3.76449,3.857696 -2.06834,0 -3.72745,-1.192707 -3.72745,-3.615303 0,-1.528233 1.02517,-3.317063 1.02517,-4.491567"
       style="fill:#252323;fill-opacity:1;fill-rule:nonzero;stroke:none;stroke-width:0.03527778"
       id="path154"
       inkscape:connector-curvature="0" />
    <path
       d="m -529.15236,-2.6955149 -32.35608,0.1823861 -0.23883,-42.2952362 32.35573,-0.182739 0.23918,42.2955891"
       style="fill:#252323;fill-opacity:1;fill-rule:nonzero;stroke:none;stroke-width:0.03527778"
       id="path156"
       inkscape:connector-curvature="0" />
    <path
       d="m -552.78847,-21.933194 c 0,-0.409928 -0.14923,-0.764117 -0.37254,-0.98813 -0.26105,-0.241653 -0.63359,-0.372534 -1.13665,-0.372534 -0.26105,0 -1.90112,0 -2.03164,0 v 3.709106 h 2.31104 c 1.09961,0 1.22979,-0.988131 1.22979,-1.398058 z m -3.54083,-9.709503 v 7.864475 h 1.65876 c 0.80151,0 1.88207,-0.782814 1.88207,-2.049992 v -3.83928 c 0,-1.13665 -0.72637,-1.956506 -1.91912,-1.975203 -0.27975,0 -1.43545,0 -1.62171,0 z m 4.02554,10.659887 c 0,1.341261 -0.87594,1.882422 -1.7145,1.882422 h -2.83245 v -13.04537 h 2.14312 c 1.34127,0 2.42253,0.968727 2.42253,2.478264 l -0.0187,3.857978 c 0,0.838553 -0.46602,1.658408 -1.19274,2.142772 0.2794,0.07444 0.50306,0.205317 0.68933,0.391583 0.31715,0.316795 0.50341,0.782462 0.50341,1.341967 v 0.950384"
       style="fill:#eae6ce;fill-opacity:1;fill-rule:nonzero;stroke:none;stroke-width:0.03527778"
       id="path158"
       inkscape:connector-curvature="0" />
    <path
       d="m -549.91792,-31.680092 v 8.517115 h 2.90724 v 0.465666 h -2.90724 v 3.112559 h 3.67136 v 0.484364 h -4.19312 v -13.04537 h 4.19312 v 0.465666 h -3.67136"
       style="fill:#eae6ce;fill-opacity:1;fill-rule:nonzero;stroke:none;stroke-width:0.03527778"
       id="path160"
       inkscape:connector-curvature="0" />
    <path
       d="m -544.23326,-31.680092 v 8.517115 h 2.90724 v 0.465666 h -2.90724 v 3.112559 h 3.67101 v 0.484364 h -4.19277 v -13.04537 h 4.19277 v 0.465666 h -3.67101"
       style="fill:#eae6ce;fill-opacity:1;fill-rule:nonzero;stroke:none;stroke-width:0.03527778"
       id="path162"
       inkscape:connector-curvature="0" />
    <path
       d="m -538.5673,-23.107238 h 1.65841 c 0.80116,0 1.86373,-0.726723 1.86373,-2.031295 V -29.6301 c 0,-1.248481 -0.74542,-2.031294 -1.86373,-2.031294 h -1.65841 z m 4.09964,4.00685 h -0.52176 v -2.162175 c 0,-0.820209 -0.54046,-1.360311 -1.43475,-1.360311 h -2.14313 v 3.522486 h -0.52211 v -13.04537 h 2.18052 c 1.09961,0 2.36679,0.670983 2.36679,2.515658 v 4.491567 c 0,0.820208 -0.39158,1.621367 -1.24848,2.143125 0.83855,0.204611 1.32292,0.912636 1.32292,1.732845 v 2.162175"
       style="fill:#eae6ce;fill-opacity:1;fill-rule:nonzero;stroke:none;stroke-width:0.03527778"
       id="path164"
       inkscape:connector-curvature="0" />
    <path
       d="m -561.06993,0.23395198 31.65087,-0.24906113 -3.28048,5.72833535 -25.16576,0.2127956 -3.20463,-5.69206982"
       style="fill:#252323;fill-opacity:1;fill-rule:nonzero;stroke:none;stroke-width:0.03527778"
       id="path166"
       inkscape:connector-curvature="0" />
    <path
       d="m -561.60862,-48.032754 31.65051,-0.287161 -3.37643,-5.671961 -25.16646,0.213783 -3.10762,5.745339"
       style="fill:#252323;fill-opacity:1;fill-rule:nonzero;stroke:none;stroke-width:0.03527778"
       id="path168"
       inkscape:connector-curvature="0" />
    <path
       d="m -558.63647,-64.438685 c -0.8576,0.966964 -0.71261,1.588205 -0.66111,1.810102 0.43851,1.878542 4.34093,3.718984 6.87353,4.510265 -0.58209,-2.592564 -2.07645,-6.587067 -3.8989,-7.179029 -0.24589,-0.08008 -0.99378,-0.322791 -2.30117,0.872067 z m 6.37822,8.491361 c -0.21872,0 -0.38206,-0.0321 -0.44274,-0.04586 l -0.0635,-0.01623 c -0.78669,-0.231775 -7.71313,-2.369961 -8.59366,-6.13657 -0.23672,-1.012119 -0.13582,-2.572102 1.6891,-4.256616 l 0.0459,0.04939 c 1.64712,-1.303514 3.04553,-1.253419 3.95605,-0.956733 3.67841,1.197328 5.22111,8.280401 5.3848,9.083676 l 0.0289,0.142169 -0.0102,0.144286 c -0.0628,0.887236 -0.47308,1.368073 -0.8061,1.615017 -0.41346,0.306564 -0.86254,0.377472 -1.18851,0.377472"
       style="fill:#252323;fill-opacity:1;fill-rule:nonzero;stroke:none;stroke-width:0.03527778"
       id="path170"
       inkscape:connector-curvature="0" />
    <path
       d="m -546.12238,-155.64162 c -2.66806,-3.60222 -2.91818,-4.85881 -3.08469,-11.31006 -0.16651,-6.45125 0.66639,-6.70207 0.74965,-10.05311 0.0843,-3.35139 -0.49953,-7.03756 -1.41676,-11.14249 -0.91687,-4.10527 -1.25095,-8.62929 -1.25095,-8.62929 l -7.66903,-0.12453 v -0.127 l -7.75335,0.12558 c 0,0 -0.33408,4.52438 -1.25095,8.62965 -0.91687,4.10457 -1.50037,7.7911 -1.41711,11.14214 0.0836,3.35103 0.91722,3.60257 0.75036,10.05346 -0.16652,6.45125 -0.41699,7.70784 -3.08469,11.31006 -2.66771,3.60256 -6.33554,7.03439 -6.33554,18.17969 0,0.41805 8.5344,-1.35643 19.00732,-1.38253 v 0 c 10.22103,0.20073 19.09127,1.92722 19.09127,1.50848 0,-11.14567 -3.66818,-14.57749 -6.33553,-18.18005"
       style="fill:#252323;fill-opacity:1;fill-rule:nonzero;stroke:none;stroke-width:0.03527778"
       id="path172"
       inkscape:connector-curvature="0" />
    <path
       d="m -539.93819,-94.951496 -0.37536,-24.767474 c -1.12536,-0.91722 -19.25778,-1.17933 -19.25778,-1.17933 v 0 c -4.57694,0.0931 -16.58762,0.56903 -17.49743,1.31021 l -0.375,24.767475 c 0,0 -0.375,4.062236 3.62655,4.717697 4.00156,0.654756 15.38147,0.392642 15.38147,0.392642 v 0 c 2.25672,0.04163 11.37708,0.04833 14.87064,-0.523522 4.00156,-0.656167 3.62691,-4.717698 3.62691,-4.717698"
       style="fill:#252323;fill-opacity:1;fill-rule:nonzero;stroke:none;stroke-width:0.03527778"
       id="path174"
       inkscape:connector-curvature="0" />
    <path
       d="m -533.74341,-119.61701 c -16.64512,-4.01567 -33.49943,-3.89044 -50.14525,0.12594 l -0.12488,-14.20072 c 18.79423,-4.53425 31.47624,-4.40866 50.27013,0.12594 0,0 0.12523,13.57207 0,13.94884"
       style="fill:#252323;fill-opacity:1;fill-rule:nonzero;stroke:none;stroke-width:0.03527778"
       id="path176"
       inkscape:connector-curvature="0" />
    <path
       d="m -584.68029,-127.15693 -0.042,8.92245 c 0,0 4.12679,3.39302 5.12692,3.39302 1.00047,0 -12.2548,2.63878 -14.13052,1.25659 l 4.00156,-8.79686 -6.18984,-4.7752 h 11.23386"
       style="fill:#252323;fill-opacity:1;fill-rule:nonzero;stroke:none;stroke-width:0.03527778"
       id="path178"
       inkscape:connector-curvature="0" />
    <path
       d="m -533.21954,-127.74678 c 0.0423,1.17264 0.0335,8.96409 0.0335,8.96409 0,0 -3.02296,2.28 -5.12763,3.39301 -0.88476,0.46814 12.2548,2.63913 14.13087,1.25695 l -4.00191,-8.79687 6.18984,-4.7752 -11.22469,-0.042"
       style="fill:#252323;fill-opacity:1;fill-rule:nonzero;stroke:none;stroke-width:0.03527778"
       id="path180"
       inkscape:connector-curvature="0" />
    <path
       d="m -550.64112,-203.01827 h -16.7774 c 0,0 -1.62278,2.80705 -1.46438,3.60292 0.15839,0.79586 0.59266,1.10843 2.21756,1.08902 1.64994,-0.0201 7.04356,0.0166 7.60977,0.0201 v 7.1e-4 c 0,0 0.0102,0 0.0254,0 0.0155,0 0.0261,0 0.0261,0 v -7.1e-4 c 0.56586,-0.004 5.96018,-0.0402 7.60942,-0.0201 1.62525,0.0194 2.05952,-0.29316 2.21721,-1.08902 0.1584,-0.79587 -1.46368,-3.60292 -1.46368,-3.60292"
       style="fill:#252323;fill-opacity:1;fill-rule:nonzero;stroke:none;stroke-width:0.03527778"
       id="path182"
       inkscape:connector-curvature="0" />
    <path
       d="m -538.81741,-120.21603 4.60833,0.96132 c 0,0 -2.17382,2.49026 -4.47781,3.23285 l -0.13052,-4.19417"
       style="fill:#252323;fill-opacity:1;fill-rule:nonzero;stroke:none;stroke-width:0.03527778"
       id="path184"
       inkscape:connector-curvature="0" />
    <path
       d="m -579.13286,-119.80822 -4.60834,0.96097 c 0,0 2.17382,2.49026 4.47781,3.23321 l 0.13053,-4.19418"
       style="fill:#252323;fill-opacity:1;fill-rule:nonzero;stroke:none;stroke-width:0.03527778"
       id="path186"
       inkscape:connector-curvature="0" />
    <path
       d="m -543.7877,-119.37148 1.62242,0.11677 -0.0868,25.339323 c 0,0 0.17427,0.612069 -1.56492,1.747661 l 0.0293,-27.203754"
       style="fill:#eae6ce;fill-opacity:1;fill-rule:nonzero;stroke:none;stroke-width:0.03527778"
       id="path188"
       inkscape:connector-curvature="0" />
    <path
       d="m -543.2663,-138.6529 1.62313,0.46602 c 0,0 0.12524,-9.43646 -3.30411,-12.61146 -4.78226,-4.42736 -5.8547,-4.63127 -5.8547,-12.5536 0,-7.92197 0.60889,-11.82511 0.37676,-15.66968 -0.23177,-3.84493 -1.82562,-14.50481 -2.2606,-16.0775 l -0.55068,0.0582 c 0,0 1.04351,8.03875 1.50706,13.04819 0.46391,5.0098 0.23178,8.03875 0,11.88368 -0.19402,3.21627 -1.21708,14.4466 2.08704,16.7767 7.50252,5.29061 6.3761,14.67944 6.3761,14.67944"
       style="fill:#eae6ce;fill-opacity:1;fill-rule:nonzero;stroke:none;stroke-width:0.03527778"
       id="path190"
       inkscape:connector-curvature="0" />
    <path
       d="m -566.00141,-126.58085 c 0,-0.6417 -0.44697,-0.89217 -1.05199,-0.8195 -0.49353,0.0723 -0.98601,0.15134 -1.47814,0.23742 0,0.9151 0,1.83056 0,2.74567 0.56621,-0.0988 1.13313,-0.18874 1.7011,-0.26952 0.73307,-0.10266 0.82903,-0.80116 0.82903,-1.10702 0,-0.26247 0,-0.52458 0,-0.78705 z m -2.53013,-7.55121 c 0,2.07681 0,4.15361 0,6.23041 0.39159,-0.0684 0.78352,-0.13264 1.17581,-0.19226 0.57256,-0.0889 1.35432,-0.78387 1.35432,-1.7466 0,-1.06504 0,-2.13008 0,-3.19511 3.5e-4,-0.84914 -0.3355,-1.42523 -1.38607,-1.28376 -0.3817,0.0586 -0.76306,0.121 -1.14406,0.18732 z m 3.36021,8.23913 c 0,1.25201 -0.86289,1.84573 -1.65911,1.96074 -0.84949,0.121 -1.69686,0.26211 -2.54106,0.42333 0,-3.74685 0,-7.4937 0,-11.2402 0.65969,-0.12595 1.32115,-0.23954 1.98402,-0.34114 1.41641,-0.21378 2.20028,0.59514 2.20028,1.95721 -0.005,1.07103 -0.0109,2.14242 -0.0159,3.2131 0,0.67557 -0.24024,1.35678 -0.92604,1.87819 0.74965,0.1457 0.95815,0.75318 0.95779,1.36207 0,0.26212 0,0.52459 0,0.7867"
       style="fill:#eae6ce;fill-opacity:1;fill-rule:nonzero;stroke:none;stroke-width:0.03527778"
       id="path192"
       inkscape:connector-curvature="0" />
    <path
       d="m -562.69059,-134.86336 c 0,2.25319 0,4.50638 0,6.75992 0.80645,-0.0529 1.61395,-0.0878 2.42146,-0.10512 0,0.24659 0,0.49247 0,0.73871 -0.80751,0.0173 -1.61501,0.0522 -2.42146,0.10513 0,0.7493 0,1.4986 0,2.2479 1.01458,-0.0663 2.03094,-0.10442 3.04729,-0.11465 0,0.25153 0,0.50306 0,0.75459 -1.29999,0.013 -2.59962,0.072 -3.89608,0.17709 0,-3.7465 0,-7.49335 0,-11.23985 1.29646,-0.10548 2.59609,-0.16439 3.89608,-0.17709 0,0.24588 0,0.49212 0,0.73836 -1.01635,0.0102 -2.03271,0.0483 -3.04729,0.11501"
       style="fill:#eae6ce;fill-opacity:1;fill-rule:nonzero;stroke:none;stroke-width:0.03527778"
       id="path194"
       inkscape:connector-curvature="0" />
    <path
       d="m -557.44444,-134.95579 c 0,2.25354 0,4.50673 0,6.76028 0.80751,0.0243 1.61467,0.0667 2.42077,0.127 0,0.24624 0,0.49248 0,0.73872 -0.8061,-0.0603 -1.61326,-0.10266 -2.42077,-0.127 0,0.7493 0,1.4986 0,2.2479 1.016,0.031 2.0313,0.09 3.04483,0.17744 0,0.25153 0,0.50306 0,0.75459 -1.29611,-0.11183 -2.59539,-0.17744 -3.89502,-0.19649 0,-3.74686 0,-7.49336 0,-11.24021 1.29963,0.0194 2.59891,0.0847 3.89502,0.1965 0,0.24624 0,0.49248 0,0.73871 -1.01353,-0.0875 -2.02883,-0.1464 -3.04483,-0.17744"
       style="fill:#eae6ce;fill-opacity:1;fill-rule:nonzero;stroke:none;stroke-width:0.03527778"
       id="path196"
       inkscape:connector-curvature="0" />
    <path
       d="m -552.22544,-127.73902 c 0.39335,0.0497 0.78634,0.10407 1.17898,0.16228 0.57327,0.0836 1.33527,-0.31503 1.33491,-1.30986 0,-1.24707 0,-2.49414 0,-3.74156 0,-0.92993 -0.44379,-1.60691 -1.33491,-1.74096 -0.39264,-0.0582 -0.78563,-0.11219 -1.17898,-0.16228 0,2.26413 0,4.52825 0,6.79238 z m 3.38596,4.23016 c -0.27446,-0.0526 -0.54927,-0.10266 -0.82409,-0.15099 0,-0.65828 0,-1.31656 0,-1.97485 0,-0.57749 -0.36512,-1.0294 -0.98495,-1.12677 -0.52494,-0.0818 -1.05058,-0.15593 -1.57692,-0.2226 0,0.97931 0,1.95897 0,2.93828 -0.28187,-0.0356 -0.56409,-0.0691 -0.84631,-0.10054 0,-3.7465 0,-7.49335 0,-11.23985 0.67627,0.0748 1.35149,0.16263 2.02529,0.26247 1.20968,0.19543 2.17523,1.01176 2.14348,2.64265 0,1.24707 0,2.49414 0,3.74121 0,0.62689 -0.31644,1.31939 -0.90382,1.60302 0.66675,0.37254 0.96697,1.02729 0.96732,1.65277 0,0.65828 0,1.31657 0,1.9752"
       style="fill:#eae6ce;fill-opacity:1;fill-rule:nonzero;stroke:none;stroke-width:0.03527778"
       id="path198"
       inkscape:connector-curvature="0" />
    <path
       d="m -454.69014,-156.6862 c -0.47907,-2.29799 -2.47579,-7.61965 -7.82743,-12.61463 l -3.49462,-33.11137 h 0.0233 c 1.06892,0 1.93569,-1.08656 1.93569,-2.4257 0,-1.3395 -0.86677,-2.42605 -1.93569,-2.42605 h -10.88566 c -1.06892,0 -1.93534,1.08655 -1.93534,2.42605 0,1.33914 0.86642,2.4257 1.93534,2.4257 h 0.23706 c -0.51681,4.73005 -3.27624,30.10182 -3.29882,33.16358 -1.9304,2.00413 -7.63623,8.34531 -7.75335,13.38333 -10e-4,0.066 0.006,0.12983 0.0127,0.19333 -0.007,0.0864 -0.0127,0.17356 -0.0127,0.26176 v 65.499194 c 0,1.674989 1.26224,3.032477 2.8194,3.032477 h 27.62568 c 1.5568,0 2.81869,-1.357488 2.81869,-3.032477 V -155.4102 c 0,-0.4565 -0.0963,-0.88759 -0.26423,-1.276"
       style="fill:#252323;fill-opacity:1;fill-rule:nonzero;stroke:none;stroke-width:0.03527778"
       id="path200"
       inkscape:connector-curvature="0" />
    <path
       d="m -460.51944,-96.223965 h -22.22394 v -55.030515 h 22.22394 v 55.030515"
       style="fill:#eae6ce;fill-opacity:1;fill-rule:nonzero;stroke:none;stroke-width:0.03527778"
       id="path202"
       inkscape:connector-curvature="0" />
    <path
       d="m -471.44744,-98.800654 -0.12135,-46.209306 0.41945,-0.001 0.12171,46.20966 -0.41981,7.06e-4"
       style="fill:#252323;fill-opacity:1;fill-rule:nonzero;stroke:none;stroke-width:0.03527778"
       id="path204"
       inkscape:connector-curvature="0" />
    <path
       d="m -468.94977,-113.17529 c -2.07927,1.98014 -2.62784,5.21441 -2.17417,8.64305 0.58032,-1.78893 1.71344,-3.8742 2.95451,-5.77673 0.75283,-1.15676 1.53635,-2.04117 1.98297,-3.13443 -1.10102,2.69346 -1.67711,3.98427 -3.12949,6.22123 -0.59514,0.91899 -1.11902,2.1015 -1.74379,2.84763 1.50848,-0.30657 2.85398,-0.94792 3.93277,-1.96498 2.14948,-2.05704 2.86209,-5.24721 2.29447,-8.84202 -1.59174,0.28787 -3.00179,0.94368 -4.11727,2.00625"
       style="fill:#252323;fill-opacity:1;fill-rule:nonzero;stroke:none;stroke-width:0.03527778"
       id="path206"
       inkscape:connector-curvature="0" />
    <path
       d="m -473.54788,-113.45504 c 2.07963,1.98014 2.65748,5.18548 2.20345,8.61412 -0.57961,-1.78893 -1.71309,-3.65372 -2.95451,-5.55625 -0.58032,-0.89217 -1.47214,-1.93886 -2.0126,-3.32599 0.86607,2.22356 1.92758,4.30813 3.37961,6.54509 0.59549,0.91899 0.86925,1.77765 1.49402,2.52377 -1.50883,-0.30656 -2.85398,-0.94791 -3.93312,-1.96497 -2.14913,-2.05705 -2.86174,-5.24686 -2.29447,-8.84202 1.59209,0.28787 3.00179,0.94368 4.11762,2.00625"
       style="fill:#252323;fill-opacity:1;fill-rule:nonzero;stroke:none;stroke-width:0.03527778"
       id="path208"
       inkscape:connector-curvature="0" />
    <path
       d="m -469.09335,-121.34527 c -1.76671,1.68204 -2.34245,4.185 -1.95686,7.09718 0.49248,-1.51977 1.42557,-2.71956 2.48391,-4.65984 0.56127,-1.02905 1.13206,-1.42558 1.82033,-2.66488 -0.86113,1.55045 -1.42487,3.23391 -2.65818,5.13432 -0.50553,0.78 -1.14476,1.64183 -1.67534,2.27542 1.28164,-0.26035 2.61796,-0.51153 3.53448,-1.37583 1.82598,-1.74696 2.43134,-4.457 1.9491,-7.51029 -1.35255,0.24412 -2.54988,0.80151 -3.49744,1.70392"
       style="fill:#252323;fill-opacity:1;fill-rule:nonzero;stroke:none;stroke-width:0.03527778"
       id="path210"
       inkscape:connector-curvature="0" />
    <path
       d="m -473.20498,-121.7298 c 1.76671,1.68204 2.37208,4.27002 1.98614,7.18185 -0.49283,-1.51906 -1.51059,-3.02331 -2.5654,-4.63903 -0.44485,-0.68439 -0.82303,-1.52894 -1.76777,-2.77036 1.07421,1.41111 1.53423,3.48615 2.76754,5.38656 0.50589,0.78035 1.02765,1.51236 1.55787,2.1463 -1.28094,-0.26105 -2.6102,-0.635 -3.52707,-1.49895 -1.82527,-1.74696 -2.43064,-4.457 -1.94875,-7.51029 1.35255,0.24413 2.54988,0.80116 3.49744,1.70392"
       style="fill:#252323;fill-opacity:1;fill-rule:nonzero;stroke:none;stroke-width:0.03527778"
       id="path212"
       inkscape:connector-curvature="0" />
    <path
       d="m -469.52939,-130.15061 c -1.48625,1.41535 -1.83232,3.83928 -1.50777,6.28933 0.41381,-1.27812 1.15782,-2.72698 2.0447,-4.08658 0.53799,-0.82656 1.15359,-1.59914 1.43757,-2.39395 -0.61418,1.71803 -1.20226,2.83492 -2.2606,4.54025 -0.4124,0.66428 -0.77576,1.40723 -1.22167,1.94028 1.07774,-0.21943 2.03906,-0.67734 2.81023,-1.40441 1.53599,-1.46967 2.04505,-3.74968 1.63971,-6.31825 -1.13771,0.20567 -2.14524,0.67416 -2.94217,1.43333"
       style="fill:#252323;fill-opacity:1;fill-rule:nonzero;stroke:none;stroke-width:0.03527778"
       id="path214"
       inkscape:connector-curvature="0" />
    <path
       d="m -473.01448,-130.20317 c 1.48626,1.41464 1.93605,3.74474 1.61149,6.19478 -0.41416,-1.27812 -1.22943,-2.66806 -2.11667,-4.02767 -0.53798,-0.82655 -0.88194,-1.47002 -1.46931,-2.35867 0.82267,1.2446 1.3723,2.99438 2.40982,4.59282 0.42545,0.65616 0.62618,1.35466 1.07244,1.88771 -1.07808,-0.21908 -2.0394,-0.67733 -2.81022,-1.40441 -1.536,-1.46967 -2.04506,-3.74967 -1.63971,-6.31825 1.1377,0.20567 2.14524,0.67416 2.94216,1.43369"
       style="fill:#252323;fill-opacity:1;fill-rule:nonzero;stroke:none;stroke-width:0.03527778"
       id="path216"
       inkscape:connector-curvature="0" />
    <path
       d="m -470.04303,-137.95652 c -1.18569,1.12924 -1.59209,2.86632 -1.33315,4.82141 0.33056,-1.02023 0.97085,-2.04787 1.67852,-3.13231 0.42933,-0.65969 0.64664,-0.94086 1.23014,-1.8415 -0.647,0.99907 -1.04917,2.24155 -1.87714,3.51719 -0.33937,0.52353 -0.67556,1.03082 -1.03152,1.45662 0.86007,-0.17533 1.75719,-0.34325 2.37243,-0.92357 1.22555,-1.17263 1.6316,-2.99155 1.3081,-5.04155 -0.90734,0.16405 -1.71132,0.53834 -2.34738,1.14371"
       style="fill:#252323;fill-opacity:1;fill-rule:nonzero;stroke:none;stroke-width:0.03527778"
       id="path218"
       inkscape:connector-curvature="0" />
    <path
       d="m -472.77635,-138.11598 c 1.18533,1.12925 1.59208,2.86632 1.33314,4.82107 -0.33055,-1.01989 -1.016,-2.03483 -1.72367,-3.11962 -0.42898,-0.65934 -0.96873,-1.21638 -1.18533,-1.85385 0.4505,1.32468 1.06327,2.3421 1.89089,3.61774 0.33937,0.52352 0.66181,0.93028 1.01811,1.35573 -0.86007,-0.17498 -1.75718,-0.34326 -2.37278,-0.92322 -1.22555,-1.17264 -1.6316,-2.99191 -1.3081,-5.04155 0.9077,0.16404 1.71168,0.53834 2.34774,1.1437"
       style="fill:#252323;fill-opacity:1;fill-rule:nonzero;stroke:none;stroke-width:0.03527778"
       id="path220"
       inkscape:connector-curvature="0" />
    <path
       d="m -470.27163,-145.32287 c -1.02235,0.97331 -1.26048,2.64124 -1.03717,4.32682 0.2854,-0.87948 0.76553,-1.97979 1.37584,-2.91501 0.37006,-0.56867 0.55844,-0.99942 1.02023,-1.54375 -0.66428,0.78281 -0.44732,1.27917 -1.37336,2.73438 -0.28893,0.45402 -0.71579,1.35784 -1.02271,1.72438 0.74189,-0.15064 1.40335,-0.46567 1.93358,-0.96591 1.05692,-1.01141 1.40723,-2.57986 1.12818,-4.34728 -0.78281,0.14111 -1.47602,0.4639 -2.02459,0.98637"
       style="fill:#252323;fill-opacity:1;fill-rule:nonzero;stroke:none;stroke-width:0.03527778"
       id="path222"
       inkscape:connector-curvature="0" />
    <path
       d="m -472.62854,-145.46046 c 1.02235,0.97332 1.37266,2.47156 1.15006,4.15714 -0.2854,-0.87948 -0.84279,-1.84856 -1.45345,-2.78413 -0.15134,-0.23283 -0.46284,-0.66145 -1.05516,-1.50495 0.5902,0.84032 0.98073,2.01472 1.69475,3.11468 0.2928,0.45155 0.55245,0.91193 0.85972,1.27882 -0.74189,-0.15099 -1.5614,-0.40076 -2.09233,-0.90064 -1.05657,-1.01142 -1.40723,-2.57987 -1.12818,-4.34728 0.78281,0.14111 1.47602,0.4639 2.02459,0.98636"
       style="fill:#252323;fill-opacity:1;fill-rule:nonzero;stroke:none;stroke-width:0.03527778"
       id="path224"
       inkscape:connector-curvature="0" />
    <path
       d="m -407.74917,-51.525607 24.18327,0.189442 -5.85717,54.0342699 -13.03585,-2.822e-4 -5.29025,-54.2234297"
       style="fill:#252323;fill-opacity:1;fill-rule:nonzero;stroke:none;stroke-width:0.03527778"
       id="path226"
       inkscape:connector-curvature="0" />
    <path
       d="m -387.91142,5.9730118 c 0,1.0434462 -0.84561,1.888984 -1.88912,1.888984 h -11.96587 c -1.04352,0 -1.88948,-0.8455378 -1.88948,-1.888984 v 0 c 0,-1.0435873 0.84596,-1.8895837 1.88948,-1.8895837 h 11.96587 c 1.04351,0 1.88912,0.8459964 1.88912,1.8895837 v 0"
       style="fill:#252323;fill-opacity:1;fill-rule:nonzero;stroke:none;stroke-width:0.03527778"
       id="path228"
       inkscape:connector-curvature="0" />
    <path
       d="m -383.88093,-62.923858 c -0.42193,0 -0.82868,0.06209 -1.21638,0.170039 -0.4639,-2.949928 -3.0092,-5.208058 -6.08895,-5.208058 -0.9024,0 -1.75718,0.198614 -2.53047,0.546452 -1.25624,-2.629958 -3.93277,-4.45135 -7.04215,-4.45135 -4.31271,0 -7.80874,3.496381 -7.80874,7.809442 0,0.608895 0.0762,1.198739 0.20814,1.767417 -0.0279,-3.53e-4 -0.0547,-0.0042 -0.0822,-0.0042 -2.29552,0 -4.15642,1.860903 -4.15642,4.156428 0,2.295878 1.8609,4.156781 4.15642,4.156781 l 23.51476,-3.53e-4 c 0.33585,0.07937 0.68545,0.125942 1.04599,0.125942 2.50296,0 4.53496,-2.030237 4.53496,-4.534253 0,-2.504017 -2.032,-4.534254 -4.53496,-4.534254"
       style="fill:#252323;fill-opacity:1;fill-rule:nonzero;stroke:none;stroke-width:0.03527778"
       id="path230"
       inkscape:connector-curvature="0" />
    <g
       id="g1297"
       transform="matrix(0.8618712,0,0,0.8618712,47.856463,11.501556)"
       style="fill:#5a2e2e;fill-opacity:1"
       inkscape:export-xdpi="64.080002"
       inkscape:export-ydpi="64.080002">
      <path
         inkscape:connector-curvature="0"
         id="path62-2"
         style="fill:#5a2e2e;fill-opacity:1;fill-rule:nonzero;stroke:none;stroke-width:0.03527778"
         d="m 135.05791,72.234385 c -3.1309,-5.478992 -1.94028,-9.525 -2.46945,-20.81389 -0.52916,-11.28889 1.94028,-25.929169 1.94028,-25.929169 l -17.50166,-0.07937 v -0.01623 l -1.83268,0.0081 -1.83233,-0.0081 v 0.01623 l -17.501658,0.07937 c 0,0 2.46945,14.640279 1.94028,25.929169 -0.52916,11.28889 0.66146,15.334898 -2.46944,20.81389 -1.41111,2.469443 1.94028,6.52639 10.054168,6.173613 l 9.80898,-0.15353 9.80934,0.15353 c 8.11389,0.352777 11.46528,-3.70417 10.05417,-6.173613" />
      <path
         inkscape:connector-curvature="0"
         id="path64-5"
         style="fill:#5a2e2e;fill-opacity:1;fill-rule:nonzero;stroke:none;stroke-width:0.03527778"
         d="m 94.579132,21.840782 c -0.77012,0 -1.81787,0.166158 -2.43629,0.958144 -0.68439,0.876654 -0.77082,2.3622 -0.25717,4.416425 0.78916,3.156303 1.84009,5.452181 2.68428,7.296856 1.1864,2.591153 2.04294,4.463345 1.30458,6.752521 -0.48507,1.502831 -1.32786,2.645127 -2.00484,3.563054 -1.14159,1.546932 -1.45697,2.077509 -0.49812,2.935465 1.11654,0.999419 2.36925,1.208969 3.22333,1.209323 3.44e-4,0 3.44e-4,0 3.44e-4,0 0.56339,0 0.98954,-0.09031 1.14582,-0.129117 L 133.06613,26.075879 c 0.0515,-0.03104 0.85231,-0.526345 1.02199,-1.654175 0.20885,-1.389239 -0.629,-3.184525 -2.42288,-5.192183 -2.37101,-2.653243 -5.27826,-3.998385 -8.64093,-3.998385 -3.31964,0 -7.10989,1.299281 -11.26596,3.861153 l -0.0695,0.04269 -1.26541,0.316794 -0.20215,-0.152752 c -0.0356,-0.02681 -3.60115,-2.684993 -7.30885,-2.684993 -2.29164,0 -4.168768,1.021645 -5.579528,3.036712 -0.74366,1.061861 -0.84773,1.864431 -0.84878,1.872544 l -0.072,0.59796 -0.5842,-0.144286 c -0.005,-0.0014 -0.55139,-0.136174 -1.24883,-0.136174 z m 2.01612,28.190121 c 0,0 0,0 -3.44e-4,0 -1.03893,-2.64e-4 -2.56329,-0.256823 -3.92889,-1.478846 -1.72226,-1.540931 -0.66781,-2.970741 0.35207,-4.352925 0.66428,-0.900287 1.41747,-1.920875 1.84891,-3.259666 0.612774,-1.897592 -0.132296,-3.52425 -1.259066,-5.986639 -0.86254,-1.884187 -1.93605,-4.229453 -2.74885,-7.480654 -0.59654,-2.386542 -0.44555,-4.177947 0.44944,-5.324474 0.69744,-0.893234 1.82845,-1.36525 3.27061,-1.36525 0.37888,0 0.71896,0.03316 0.97966,0.0702 0.13088,-0.429685 0.39229,-1.073857 0.90699,-1.808692 1.62031,-2.314576 3.789538,-3.488268 6.446658,-3.488268 3.5747,0 6.88199,2.146653 7.73783,2.748139 l 0.62265,-0.155575 c 4.29895,-2.638072 8.25183,-3.975453 11.75139,-3.975453 3.677,0 6.84953,1.464028 9.42975,4.351867 2.05281,2.296583 2.95239,4.344107 2.67546,6.086123 -0.25788,1.62313 -1.46014,2.337858 -1.51094,2.367491 l -35.436178,22.839892 -0.0706,0.02151 c -0.0258,0.0078 -0.63676,0.191204 -1.516591,0.191204" />
      <path
         inkscape:connector-curvature="0"
         id="path66-3"
         style="fill:#5a2e2e;fill-opacity:1;fill-rule:nonzero;stroke:none;stroke-width:0.03527778"
         d="m 133.47076,30.283107 -0.58808,6.820606 4.82142,-0.470606 c 0,0 1.29363,-0.58808 1.41111,2.469445 0.11747,3.057526 -0.11783,18.815051 -0.11783,18.815051 0,0 2.7e-4,1.528586 -1.64606,2.234142 -1.64642,0.705556 -5.64445,1.999192 -5.64445,1.999192 l 1.41111,6.467475 c 0,0 7.29086,-2.939696 9.17223,-4.233334 1.88136,-1.293635 2.82187,-2.587273 2.70439,-4.821414 -0.11747,-2.234142 0.2353,-23.518285 0.2353,-23.518285 0,0 -1.64641,-5.174192 -5.64444,-5.526969 -3.99803,-0.352778 -6.1147,-0.235303 -6.1147,-0.235303" />
      <path
         inkscape:connector-curvature="0"
         id="path68-8"
         style="fill:#5a2e2e;fill-opacity:1;fill-rule:nonzero;stroke:none;stroke-width:0.03527778"
         d="m 127.19767,75.946949 c -0.13688,0.743056 1.56739,0.786728 1.59102,-0.124425 0.0356,-1.366063 -0.0487,-46.004026 -0.0487,-46.004026 l -0.53657,-0.151694 c 0,0 -0.77717,45.041578 -1.00577,46.280145" />
    </g>
    <flowRoot
       xml:space="preserve"
       id="flowRoot1299"
       style="font-style:normal;font-weight:normal;font-size:40px;line-height:1.25;font-family:sans-serif;letter-spacing:0px;word-spacing:0px;fill:#5a2e2e;fill-opacity:1;stroke:none;"
       transform="matrix(1.1341256,0,0,1.1341256,-80.208319,-49.533276)"
       inkscape:export-xdpi="64.080002"
       inkscape:export-ydpi="64.080002"><flowRegion
         id="flowRegion1301"
         style="fill:#5a2e2e;fill-opacity:1;"><rect
           id="rect1303"
           width="151.52289"
           height="112.63201"
           x="84.34774"
           y="87.113327"
           style="fill:#5a2e2e;fill-opacity:1;" /></flowRegion><flowPara
         id="flowPara1305"
         style="font-style:normal;font-variant:normal;font-weight:normal;font-stretch:normal;font-family:'Fredericka the Great';-inkscape-font-specification:'Fredericka the Great';fill:#5a2e2e;fill-opacity:1;">CLE</flowPara></flowRoot>  </g>
</svg>
